<svg width="42" height="42" viewBox="0 0 42 42" fill="none" xmlns="http://www.w3.org/2000/svg">
<path d="M3.5 21H38.5M3.5 21C3.5 30.665 11.335 38.5 21 38.5M3.5 21C3.5 11.335 11.335 3.5 21 3.5M38.5 21C38.5 30.665 30.665 38.5 21 38.5M38.5 21C38.5 11.335 30.665 3.5 21 3.5M21 3.5C25.3772 8.29212 27.8648 14.5111 28 21C27.8648 27.4889 25.3772 33.7079 21 38.5M21 3.5C16.6228 8.29212 14.1352 14.5111 14 21C14.1352 27.4889 16.6228 33.7079 21 38.5" stroke="#F2F2F2" stroke-width="1.5" stroke-linecap="round" stroke-linejoin="round"/>
</svg>
