<svg width="24" height="24" viewBox="0 0 24 24" fill="none" xmlns="http://www.w3.org/2000/svg">
<path fill-rule="evenodd" clip-rule="evenodd" d="M15.1845 4.48309C16.5702 3.09736 18.8612 3.25697 20.0414 4.82145C21.0433 6.14966 20.8709 8.02198 19.6433 9.14493L10.0591 17.9119C9.6623 18.2749 9.19206 18.5483 8.6803 18.7135L5.69567 19.6772C4.72574 19.9904 3.80888 19.0735 4.12205 18.1036L5.06416 15.1858C5.24672 14.6205 5.56099 14.1066 5.9811 13.6864L15.1845 4.48309ZM16.2006 10.2612L13.8641 7.92477L7.04176 14.7471C6.7897 14.9992 6.60113 15.3075 6.4916 15.6467L5.69957 18.0997L8.2194 17.2861C8.52646 17.1869 8.8086 17.0229 9.04668 16.8051L16.2006 10.2612Z" fill="#333333"/>
</svg>
