<svg width="27" height="26" viewBox="0 0 27 26" fill="none" xmlns="http://www.w3.org/2000/svg">
<path d="M11.6237 23.6559H4.0968V21.5054C4.0968 18.9044 5.94386 16.7347 8.39788 16.2366M15.9248 23.656H23.4516V21.5055C23.4516 18.9044 21.6046 16.7348 19.1506 16.2367M10.4294 23.0697L10.5188 23.2412C10.6524 23.4976 10.9021 23.6559 11.1726 23.6559H16.3759C16.6464 23.6559 16.896 23.4976 17.0296 23.2412L17.119 23.0697C20.6575 16.2814 19.4869 7.73683 14.2834 2.37144C13.9977 2.07691 13.5507 2.07691 13.2651 2.37144C8.06154 7.73683 6.89094 16.2814 10.4294 23.0697ZM15.9248 12.9032C15.9248 14.0909 14.9619 15.0538 13.7742 15.0538C12.5865 15.0538 11.6237 14.0909 11.6237 12.9032C11.6237 11.7155 12.5865 10.7527 13.7742 10.7527C14.9619 10.7527 15.9248 11.7155 15.9248 12.9032Z" stroke="#F2F2F2" stroke-width="1.5" stroke-linecap="round" stroke-linejoin="round"/>
</svg>
