<svg width="32" height="32" viewBox="0 0 32 32" fill="none" xmlns="http://www.w3.org/2000/svg">
<path d="M11.6748 5.67394L13.469 3.09548C13.656 2.82682 13.9625 2.66666 14.2898 2.66666H17.0442C17.3702 2.66666 17.6758 2.82564 17.863 3.09265L19.6396 5.62709M11.6748 5.67394C11.2123 6.33374 10.4436 6.65704 9.62765 6.5994M11.6748 5.67394C11.2101 6.33216 10.4436 6.65972 9.62765 6.5994M9.62765 6.5994L6.45853 6.40044C6.13768 6.3803 5.82672 6.51563 5.6228 6.76416L3.87822 8.89039C3.66202 9.15388 3.59491 9.50935 3.70017 9.83353L4.63094 12.7M4.63094 12.7C4.74951 13.0845 4.76468 13.4963 4.67983 13.8853M4.63094 12.7C4.7512 13.0838 4.76581 13.4948 4.67927 13.8893M4.67983 13.8853C4.59386 14.2697 4.40954 14.6327 4.13588 14.9266M4.67983 13.8853L4.67927 13.8893M4.13588 14.9266L2.03249 17.1888C1.80409 17.4344 1.71406 17.7782 1.79275 18.1043L2.41334 20.676C2.49176 21.001 2.72741 21.2653 3.04131 21.3803L5.93126 22.4395C6.31112 22.5866 6.63929 22.8255 6.88767 23.1265M4.13588 14.9266C4.41123 14.6351 4.59386 14.2733 4.67927 13.8893M6.88767 23.1265C7.13436 23.4283 7.30237 23.7927 7.36756 24.1871M6.88767 23.1265C7.1366 23.4283 7.30518 23.7917 7.36756 24.1871M6.88767 23.1265L6.88373 23.1221C6.86744 23.1024 6.85002 23.0818 6.83316 23.0626M7.36756 24.1871L7.8595 27.2089C7.91277 27.5361 8.12472 27.8157 8.42539 27.9553L10.9107 29.1092C11.2018 29.2443 11.54 29.2315 11.8201 29.0748L14.5204 27.5641M14.5204 27.5641C14.8739 27.3655 15.2683 27.266 15.6628 27.2655M14.5204 27.5641C14.6603 27.4845 14.807 27.4209 14.9576 27.3732C15.1863 27.3008 15.4246 27.265 15.6628 27.2655M15.6628 27.2655C15.8679 27.2659 16.073 27.2931 16.2731 27.3467C16.4591 27.3965 16.64 27.4691 16.8114 27.5641M15.6628 27.2655C16.059 27.265 16.4557 27.3645 16.8114 27.5641M16.8114 27.5641L19.6319 29.091C19.9132 29.2432 20.2504 29.2518 20.539 29.1139L23.012 27.9328C23.3116 27.7897 23.5206 27.5072 23.5699 27.1789L24.0115 24.2373M24.0115 24.2373C24.0738 23.8406 24.2396 23.4735 24.4857 23.1691M24.0115 24.2373C24.0716 23.8397 24.2385 23.4732 24.4857 23.1691M24.4857 23.1691C24.7302 22.8677 25.0544 22.6276 25.432 22.4791M24.4857 23.1691C24.7296 22.8665 25.0527 22.6257 25.432 22.4791M25.432 22.4791L28.3468 21.3368C28.6547 21.2161 28.8831 20.9509 28.9568 20.6284L29.5494 18.0339C29.6228 17.7123 29.5329 17.3752 29.3091 17.1328L27.1965 14.8453M27.1965 14.8453C26.9178 14.5503 26.7233 14.1981 26.6289 13.8236M27.1965 14.8453C27.0656 14.7075 26.9532 14.5569 26.8616 14.3973C26.7571 14.216 26.679 14.023 26.6289 13.8236M26.6289 13.8236C26.5362 13.4519 26.5418 13.058 26.6593 12.6767L27.5751 9.74126C27.6755 9.41946 27.607 9.06874 27.3929 8.80835L25.6857 6.73189C25.4794 6.481 25.1641 6.34592 24.8402 6.36965L21.7036 6.5994M21.7036 6.5994C21.2979 6.62805 20.8989 6.55076 20.5438 6.38451M21.7036 6.5994C21.2973 6.6297 20.8989 6.55179 20.5438 6.38451M20.5438 6.38451C20.1864 6.21612 19.8728 5.95719 19.6396 5.62709M20.5438 6.38451C20.1858 6.21674 19.8717 5.95849 19.6396 5.62709M4.67927 13.8893L4.6804 13.8835M20.1813 16.0141C20.1813 18.5007 18.1201 20.5165 15.578 20.5165C13.0358 20.5165 10.9746 18.5007 10.9746 16.0141C10.9746 13.5275 13.0358 11.5118 15.578 11.5118C18.1201 11.5118 20.1813 13.5275 20.1813 16.0141Z" stroke="#F2F2F2" stroke-width="2"/>
</svg>
