<svg width="24" height="24" viewBox="0 0 24 24" fill="none" xmlns="http://www.w3.org/2000/svg">
<path d="M3 5C2.44772 5 2 5.44772 2 6C2 6.55228 2.44772 7 3 7V5ZM8.44721 3.10557L7.55279 2.65836V2.65836L8.44721 3.10557ZM21 7C21.5523 7 22 6.55228 22 6C22 5.44772 21.5523 5 21 5V7ZM15.5528 3.10557L16.4472 2.65836V2.65836L15.5528 3.10557ZM6.24805 9.93762C6.2136 9.38641 5.73883 8.9675 5.18762 9.00195C4.63641 9.0364 4.2175 9.51117 4.25195 10.0624L6.24805 9.93762ZM19.7481 10.0624C19.7825 9.51117 19.3636 9.0364 18.8124 9.00195C18.2612 8.9675 17.7864 9.38641 17.7519 9.93762L19.7481 10.0624ZM18.2813 17.4994L17.2832 17.437L18.2813 17.4994ZM7.50667 21.6981L7.06944 22.5974L7.50667 21.6981ZM6.20738 20.4774L5.33705 20.9699H5.33705L6.20738 20.4774ZM16.4933 21.6981L16.0561 20.7987L16.4933 21.6981ZM17.7926 20.4774L18.663 20.9699L17.7926 20.4774ZM3 7H7V5H3V7ZM7.89443 6.44721L9.34164 3.55279L7.55279 2.65836L6.10557 5.55279L7.89443 6.44721ZM10.2361 3H13.7639V1H10.2361V3ZM7 7H17V5H7V7ZM17 7H21V5H17V7ZM14.6584 3.55279L16.1056 6.44721L17.8944 5.55279L16.4472 2.65836L14.6584 3.55279ZM13.7639 3C14.1427 3 14.489 3.214 14.6584 3.55279L16.4472 2.65836C15.939 1.64201 14.9002 1 13.7639 1V3ZM9.34164 3.55279C9.51103 3.214 9.8573 3 10.2361 3V1C9.09975 1 8.06096 1.64201 7.55279 2.65836L9.34164 3.55279ZM13.4906 21H10.5094V23H13.4906V21ZM6.71677 17.437L6.24805 9.93762L4.25195 10.0624L4.72066 17.5618L6.71677 17.437ZM17.7519 9.93762L17.2832 17.437L19.2793 17.5618L19.7481 10.0624L17.7519 9.93762ZM10.5094 21C9.69953 21 9.15055 20.9993 8.72481 20.9654C8.3112 20.9325 8.09656 20.8729 7.9439 20.7987L7.06944 22.5974C7.53787 22.8251 8.03071 22.9165 8.56624 22.9591C9.08964 23.0007 9.73146 23 10.5094 23V21ZM4.72066 17.5618C4.76919 18.3382 4.80849 18.9788 4.88268 19.4986C4.9586 20.0304 5.08054 20.5166 5.33705 20.9699L7.0777 19.985C6.99411 19.8372 6.92124 19.6267 6.86261 19.216C6.80226 18.7932 6.76728 18.2453 6.71677 17.437L4.72066 17.5618ZM7.9439 20.7987C7.57938 20.6215 7.27731 20.3377 7.0777 19.985L5.33705 20.9699C5.73626 21.6754 6.34041 22.243 7.06944 22.5974L7.9439 20.7987ZM13.4906 23C14.2685 23 14.9104 23.0007 15.4338 22.9591C15.9693 22.9165 16.4621 22.8251 16.9306 22.5974L16.0561 20.7987C15.9034 20.8729 15.6888 20.9325 15.2752 20.9654C14.8494 20.9993 14.3005 21 13.4906 21V23ZM17.2832 17.437C17.2327 18.2453 17.1977 18.7932 17.1374 19.216C17.0788 19.6267 17.0059 19.8372 16.9223 19.985L18.663 20.9699C18.9195 20.5166 19.0414 20.0304 19.1173 19.4986C19.1915 18.9788 19.2308 18.3382 19.2793 17.5618L17.2832 17.437ZM16.9306 22.5974C17.6596 22.243 18.2637 21.6754 18.663 20.9699L16.9223 19.985C16.7227 20.3377 16.4206 20.6215 16.0561 20.7987L16.9306 22.5974Z" fill="#F2F2F2"/>
</svg>
